<svg fill="none" height="37" viewBox="0 0 37 37" width="37" xmlns="http://www.w3.org/2000/svg">
<path class="logo-path" d="m33.5007 24.9102c-.1969.2118-.4312.4331-.6843.6591-1.3078 1.1677-3.2107 2.4061-4.3825 2.4061-1.3874 0-1.8374-1.3937-1.7061-3.4608.7452-.7721 1.8045-1.9163 2.9107-3.2676 3.295-4.0163 6.0745-9.8501 5.198-13.37677-.2062-.82398-1.3546-1.12532-2.1186-.63094-2.7888 1.78922-5.4933 6.28111-7.8931 13.91351-.4219 1.3466-.6937 2.5802-.8156 3.6726-.614.565-1.2515 1.1159-1.8795 1.5962-1.2234.9464-2.4045 1.6291-3.2342 1.6479-.014 0-.0281 0-.0422 0-.4218 0-.6936-.1648-.8858-.4755-.1875-.3108-.2766-.7722-.2766-1.3466 0-.1272 0-.2637.0141-.405.5578-.5791 1.3358-1.4219 2.1467-2.4107 1.0921-1.3325 2.1233-2.9522 2.8779-4.5531.7593-1.6009 1.2421-3.1876 1.2421-4.4589 0-.3296-.0328-.6404-.1031-.9229-.1031-.4143-.5062-.7816-1.0827-.7816-.2297 0-.4828.0565-.7547.1931-.853.4237-1.842 1.6527-2.8685 3.4607-1.0218 1.8081-2.0764 4.1952-3.0326 6.9262-.3843 1.1064-.614 2.1188-.689 3.0039-.4172.3485-.8577.6922-1.2983 1.0077-.5062.3625-1.0078.6827-1.4671.9134-.4594.2307-.8765.3673-1.1952.3767-.0094 0-.0188 0-.0235 0-.1453 0-.2578-.033-.3515-.0895-.1406-.0847-.2484-.2401-.3281-.4708-.075-.226-.1125-.5274-.1125-.8711 0-.0659 0-.1365 0-.2072.4078-.4237.9843-1.0452 1.5889-1.7798.7828-.9511 1.5655-2.0811 2.1514-3.23.5906-1.1488.989-2.3071.989-3.3336 0-.3248-.0422-.6356-.1312-.9228-.0563-.1789-.1687-.3249-.314-.4191-.1453-.0941-.3235-.1412-.5063-.1412-.2249 0-.4687.0706-.703.2071-.675.405-1.4015 1.3137-2.1561 2.6227-.75 1.3089-1.514 3.0228-2.21235 5.0192-.19686.5603-.33748 1.0923-.42653 1.582-.3281.2919-.76401.6639-1.24679 1.0171-.43122.3154-.90462.6215-1.36396.8381-.45934.2213-.90462.3578-1.27021.3578-.07031 0-.11718-.0141-.15468-.0377-.05156-.0329-.1078-.0941-.1453-.2166-.04218-.1224-.06562-.2966-.06562-.5038 0-.047 0-.0988 0-.1506.28123-.292.67026-.7157 1.07804-1.2148.50152-.6121 1.01711-1.3749 1.41552-2.1612.39372-.7863.67026-1.5868.67495-2.3071 0-.3532-.07031-.6922-.24373-.9794-.05156-.0895-.13124-.1507-.21092-.1883-.08437-.0377-.16874-.0518-.25311-.0518-.23435 0-.4734.0988-.66089.2872-.73588.7439-1.94517 2.3872-2.91072 5.1369-.09374.2637-.16405.5132-.22498.7534-.08437.0659-.20155.1412-.33748.2166-.50621.2778-1.27958.5556-1.75298.6544-.05625.0142-.10781.033-.15937.0707-.02813.0188-.05156.047-.07499.0847-.02344.0377-.0375.0848-.0375.1366 0 .0941.05625.1742.10312.2165.05156.0424.10311.0613.15467.0707.11718.0235.28592.0423.49684.0423.37029 0 .8765-.0565 1.46239-.2448.01875.4379.12655.8193.34216 1.1065.23904.3155.61871.4897 1.0593.4897h.01406c.48746 0 1.00773-.1648 1.54207-.405.79681-.3625 1.61706-.9181 2.2967-1.4407.12655-.0989.25311-.1978.37029-.292.02812.6121.17811 1.1206.46403 1.4973.31404.4144.80147.6404 1.40617.6451h.0093c1.0265 0 2.2405-.5792 3.417-1.3278.4546-.2919.8999-.6074 1.3218-.9276.0843.5745.2718 1.0594.5577 1.4314.4125.5368 1.0312.8287 1.828.8287h.0047c1.2233 0 2.681-.7063 4.1247-1.6715.6749-.452 1.3452-.9652 1.9873-1.4926.2063 1.9964 1.2093 3.1688 3.0701 3.1688 2.9857 0 5.7605-3.004 6.6183-4.2094.5015-.7062.2531-1.3136-.1688-.8663zm-5.9105-4.9016c.9046-3.2582 2.3248-5.2923 3.1779-6.8131 1.1061-1.9728 1.7248-1.8222 1.2983.5744-.3187 1.8128-2.2498 5.6314-5.0152 8.4564.1406-.7062.3234-1.4549.5343-2.2177zm-9.2196 2.4767c.7218-2.5897 2.0436-4.7414 2.7748-5.7067.1078-.1459.2249-.2071.2953-.2071.0468 0 .0843.0188.1171.0706s.061.146.061.2825c0 .3814-.075.9182-.2813 1.6244-.1453.4991-.5999 1.4691-1.2327 2.5473-.5906 1.0029-1.3358 2.1094-2.1373 3.0322.1078-.5179.2437-1.0735.4031-1.6479zm-7.237 1.9587c.3562-1.2807.9609-2.4154 1.4812-3.23.2577-.4049.4968-.7345.6655-.9605.0282-.0377.0563-.0754.0844-.1083.0047.0612.0094.1318.0094.2166 0 .2684-.0422.645-.1875 1.1536-.1031.3578-.4406 1.0782-.914 1.8786-.3844.6498-.8531 1.3514-1.3593 1.9635.0656-.2967.1406-.6074.2297-.9182zm-6.0839 1.6574c.23904-.8569.64682-1.6244.99367-2.1706.09374-.146.17811-.2731.25779-.3861-.01874.1365-.05155.2966-.1078.485-.03281.1083-.10781.2919-.21093.5085-.21092.4379-.54839 1.0264-.94211 1.5773 0-.0047 0-.0094 0-.0141z" fill="#525459"/>
</svg>