<svg width="37" height="37" viewBox="0 0 37 37" fill="none" xmlns="http://www.w3.org/2000/svg">
<path d="M33.5007 24.9102C33.3038 25.122 33.0695 25.3433 32.8164 25.5693C31.5086 26.737 29.6057 27.9754 28.4339 27.9754C27.0465 27.9754 26.5965 26.5817 26.7278 24.5146C27.473 23.7425 28.5323 22.5983 29.6385 21.247C32.9335 17.2307 35.713 11.3969 34.8365 7.87023C34.6303 7.04625 33.4819 6.74491 32.7179 7.23929C29.9291 9.02851 27.2246 13.5204 24.8248 21.1528C24.4029 22.4994 24.1311 23.733 24.0092 24.8254C23.3952 25.3904 22.7577 25.9413 22.1297 26.4216C20.9063 27.368 19.7252 28.0507 18.8955 28.0695C18.8815 28.0695 18.8674 28.0695 18.8533 28.0695C18.4315 28.0695 18.1597 27.9047 17.9675 27.594C17.78 27.2832 17.6909 26.8218 17.6909 26.2474C17.6909 26.1202 17.6909 25.9837 17.705 25.8424C18.2628 25.2633 19.0408 24.4205 19.8517 23.4317C20.9438 22.0992 21.975 20.4795 22.7296 18.8786C23.4889 17.2777 23.9717 15.691 23.9717 14.4197C23.9717 14.0901 23.9389 13.7793 23.8686 13.4968C23.7655 13.0825 23.3624 12.7152 22.7859 12.7152C22.5562 12.7152 22.3031 12.7717 22.0312 12.9083C21.1782 13.332 20.1892 14.561 19.1627 16.369C18.1409 18.1771 17.0863 20.5642 16.1301 23.2952C15.7458 24.4016 15.5161 25.414 15.4411 26.2991C15.0239 26.6476 14.5834 26.9913 14.1428 27.3068C13.6366 27.6693 13.135 27.9895 12.6757 28.2202C12.2163 28.4509 11.7992 28.5875 11.4805 28.5969C11.4711 28.5969 11.4617 28.5969 11.457 28.5969C11.3117 28.5969 11.1992 28.5639 11.1055 28.5074C10.9649 28.4227 10.8571 28.2673 10.7774 28.0366C10.7024 27.8106 10.6649 27.5092 10.6649 27.1655C10.6649 27.0996 10.6649 27.029 10.6649 26.9583C11.0727 26.5346 11.6492 25.9131 12.2538 25.1785C13.0366 24.2274 13.8193 23.0974 14.4052 21.9485C14.9958 20.7997 15.3942 19.6414 15.3942 18.6149C15.3942 18.2901 15.352 17.9793 15.263 17.6921C15.2067 17.5132 15.0943 17.3672 14.949 17.273C14.8037 17.1789 14.6255 17.1318 14.4427 17.1318C14.2178 17.1318 13.974 17.2024 13.7397 17.3389C13.0647 17.7439 12.3382 18.6526 11.5836 19.9616C10.8336 21.2705 10.0696 22.9844 9.37125 24.9808C9.17439 25.5411 9.03377 26.0731 8.94472 26.5628C8.61662 26.8547 8.18071 27.2267 7.69793 27.5799C7.26671 27.8953 6.79331 28.2014 6.33397 28.418C5.87463 28.6393 5.42935 28.7758 5.06376 28.7758C4.99345 28.7758 4.94658 28.7617 4.90908 28.7381C4.85752 28.7052 4.80128 28.644 4.76378 28.5215C4.7216 28.3991 4.69816 28.2249 4.69816 28.0177C4.69816 27.9707 4.69816 27.9189 4.69816 27.8671C4.97939 27.5751 5.36842 27.1514 5.7762 26.6523C6.27772 26.0402 6.79331 25.2774 7.19172 24.4911C7.58544 23.7048 7.86198 22.9043 7.86667 22.184C7.86667 21.8308 7.79636 21.4918 7.62294 21.2046C7.57138 21.1151 7.4917 21.0539 7.41202 21.0163C7.32765 20.9786 7.24328 20.9645 7.15891 20.9645C6.92456 20.9645 6.68551 21.0633 6.49802 21.2517C5.76214 21.9956 4.55285 23.6389 3.5873 26.3886C3.49356 26.6523 3.42325 26.9018 3.36232 27.142C3.27795 27.2079 3.16077 27.2832 3.02484 27.3586C2.51863 27.6364 1.74526 27.9142 1.27186 28.013C1.21561 28.0272 1.16405 28.046 1.11249 28.0837C1.08436 28.1025 1.06093 28.1307 1.0375 28.1684C1.01406 28.2061 1 28.2532 1 28.305C1 28.3991 1.05625 28.4792 1.10312 28.5215C1.15468 28.5639 1.20623 28.5828 1.25779 28.5922C1.37497 28.6157 1.54371 28.6345 1.75463 28.6345C2.12492 28.6345 2.63113 28.578 3.21702 28.3897C3.23577 28.8276 3.34357 29.209 3.55918 29.4962C3.79822 29.8117 4.17789 29.9859 4.61848 29.9859C4.61848 29.9859 4.62785 29.9859 4.63254 29.9859C5.12 29.9859 5.64027 29.8211 6.17461 29.5809C6.97142 29.2184 7.79167 28.6628 8.47131 28.1402C8.59786 28.0413 8.72442 27.9424 8.8416 27.8482C8.86972 28.4603 9.01971 28.9688 9.30563 29.3455C9.61967 29.7599 10.1071 29.9859 10.7118 29.9906C10.7118 29.9906 10.7165 29.9906 10.7211 29.9906C11.7476 29.9906 12.9616 29.4114 14.1381 28.6628C14.5927 28.3709 15.038 28.0554 15.4599 27.7352C15.5442 28.3097 15.7317 28.7946 16.0176 29.1666C16.4301 29.7034 17.0488 29.9953 17.8456 29.9953H17.8503C19.0736 29.9953 20.5313 29.289 21.975 28.3238C22.6499 27.8718 23.3202 27.3586 23.9623 26.8312C24.1686 28.8276 25.1716 30 27.0324 30C30.0181 30 32.7929 26.996 33.6507 25.7906C34.1522 25.0844 33.9038 24.477 33.4819 24.9243L33.5007 24.9102ZM27.5902 20.0086C28.4948 16.7504 29.915 14.7163 30.7681 13.1955C31.8742 11.2227 32.4929 11.3733 32.0664 13.7699C31.7477 15.5827 29.8166 19.4013 27.0512 22.2263C27.1918 21.5201 27.3746 20.7714 27.5855 20.0086H27.5902ZM18.3706 22.4853C19.0924 19.8956 20.4142 17.7439 21.1454 16.7786C21.2532 16.6327 21.3703 16.5715 21.4407 16.5715C21.4875 16.5715 21.525 16.5903 21.5578 16.6421C21.5906 16.6939 21.6188 16.7881 21.6188 16.9246C21.6188 17.306 21.5438 17.8428 21.3375 18.549C21.1922 19.0481 20.7376 20.0181 20.1048 21.0963C19.5142 22.0992 18.769 23.2057 17.9675 24.1285C18.0753 23.6106 18.2112 23.055 18.3706 22.4806V22.4853ZM11.1336 24.444C11.4898 23.1633 12.0945 22.0286 12.6148 21.214C12.8725 20.8091 13.1116 20.4795 13.2803 20.2535C13.3085 20.2158 13.3366 20.1781 13.3647 20.1452C13.3694 20.2064 13.3741 20.277 13.3741 20.3618C13.3741 20.6302 13.3319 21.0068 13.1866 21.5154C13.0835 21.8732 12.746 22.5936 12.2726 23.394C11.8882 24.0438 11.4195 24.7454 10.9133 25.3575C10.9789 25.0608 11.0539 24.7501 11.143 24.4393L11.1336 24.444ZM5.0497 26.1014C5.28874 25.2445 5.69652 24.477 6.04337 23.9308C6.13711 23.7848 6.22148 23.6577 6.30116 23.5447C6.28242 23.6812 6.24961 23.8413 6.19336 24.0297C6.16055 24.138 6.08555 24.3216 5.98243 24.5382C5.77151 24.9761 5.43404 25.5646 5.04032 26.1155C5.04032 26.1108 5.04032 26.1061 5.04032 26.1014H5.0497Z" fill="white"/>
</svg>
