<svg width="183" height="52" viewBox="0 0 183 52" fill="none" xmlns="http://www.w3.org/2000/svg">
<path d="M180.697 27.4384C180.394 27.763 180.034 28.102 179.644 28.4482C177.632 30.2372 174.703 32.1343 172.9 32.1343C170.764 32.1343 170.072 29.9991 170.274 26.8325C171.421 25.6495 173.051 23.8966 174.753 21.8264C179.824 15.6734 184.102 6.73601 182.753 1.33319C182.436 0.0708519 180.668 -0.390804 179.493 0.3666C175.201 3.10768 171.038 9.98924 167.345 21.6821C166.696 23.7451 166.278 25.635 166.09 27.3085C165.145 28.1741 164.164 29.0181 163.198 29.7539C161.315 31.2038 159.497 32.2497 158.22 32.2785C158.199 32.2785 158.177 32.2785 158.155 32.2785C157.506 32.2785 157.088 32.0261 156.792 31.55C156.504 31.0739 156.366 30.367 156.366 29.487C156.366 29.2922 156.366 29.083 156.388 28.8666C157.247 27.9794 158.444 26.6882 159.692 25.1734C161.373 23.132 162.96 20.6506 164.121 18.198C165.289 15.7455 166.032 13.3146 166.032 11.367C166.032 10.8621 165.982 10.386 165.874 9.95317C165.715 9.31839 165.095 8.75575 164.207 8.75575C163.854 8.75575 163.464 8.84231 163.046 9.0515C161.733 9.7007 160.211 11.5834 158.631 14.3533C157.059 17.1233 155.436 20.7804 153.964 24.9642C153.373 26.6593 153.019 28.2102 152.904 29.5663C152.262 30.1001 151.584 30.6267 150.906 31.11C150.127 31.6654 149.355 32.1559 148.648 32.5094C147.941 32.8628 147.299 33.072 146.809 33.0864C146.794 33.0864 146.78 33.0864 146.773 33.0864C146.549 33.0864 146.376 33.036 146.232 32.9494C146.015 32.8196 145.849 32.5815 145.727 32.2281C145.611 31.8818 145.554 31.4202 145.554 30.8936C145.554 30.7926 145.554 30.6844 145.554 30.5762C146.181 29.927 147.068 28.9748 147.999 27.8495C149.204 26.3924 150.408 24.6612 151.31 22.9012C152.219 21.1411 152.832 19.3666 152.832 17.7941C152.832 17.2964 152.767 16.8203 152.63 16.3803C152.543 16.1062 152.37 15.8826 152.147 15.7383C151.923 15.594 151.649 15.5219 151.368 15.5219C151.021 15.5219 150.646 15.6301 150.286 15.8393C149.247 16.4596 148.129 17.8518 146.967 19.8571C145.813 21.8624 144.638 24.4881 143.563 27.5466C143.26 28.405 143.043 29.2201 142.906 29.9703C142.401 30.4175 141.731 30.9874 140.988 31.5284C140.324 32.0117 139.595 32.4805 138.888 32.8123C138.182 33.1514 137.496 33.3606 136.934 33.3606C136.825 33.3606 136.753 33.3389 136.696 33.3028C136.616 33.2524 136.53 33.1586 136.472 32.971C136.407 32.7835 136.371 32.5166 136.371 32.1992C136.371 32.1271 136.371 32.0477 136.371 31.9684C136.804 31.5211 137.403 30.8719 138.03 30.1073C138.802 29.1696 139.595 28.001 140.209 26.7964C140.814 25.5918 141.24 24.3655 141.247 23.2618C141.247 22.7208 141.139 22.2015 140.872 21.7615C140.793 21.6244 140.67 21.5306 140.548 21.4729C140.418 21.4152 140.288 21.3936 140.158 21.3936C139.797 21.3936 139.43 21.5451 139.141 21.8336C138.008 22.9733 136.147 25.4908 134.661 29.7034C134.517 30.1073 134.409 30.4896 134.315 30.8575C134.185 30.9585 134.005 31.0739 133.796 31.1893C133.017 31.6149 131.827 32.0405 131.098 32.192C131.012 32.2136 130.932 32.2425 130.853 32.3002C130.81 32.329 130.773 32.3723 130.737 32.43C130.701 32.4877 130.68 32.5599 130.68 32.6392C130.68 32.7835 130.766 32.9061 130.838 32.971C130.918 33.036 130.997 33.0648 131.076 33.0792C131.257 33.1153 131.516 33.1442 131.841 33.1442C132.411 33.1442 133.19 33.0576 134.092 32.7691C134.12 33.4399 134.286 34.0242 134.618 34.4642C134.986 34.9475 135.57 35.2144 136.248 35.2144C136.248 35.2144 136.263 35.2144 136.27 35.2144C137.02 35.2144 137.821 34.9619 138.643 34.594C139.87 34.0386 141.132 33.1874 142.178 32.3867C142.373 32.2353 142.567 32.0838 142.748 31.9395C142.791 32.8773 143.022 33.6563 143.462 34.2334C143.945 34.8681 144.695 35.2144 145.626 35.2216C145.626 35.2216 145.633 35.2216 145.64 35.2216C147.22 35.2216 149.088 34.3344 150.899 33.1874C151.598 32.7402 152.284 32.2569 152.933 31.7664C153.063 32.6464 153.351 33.3894 153.791 33.9593C154.426 34.7816 155.378 35.2288 156.605 35.2288H156.612C158.494 35.2288 160.738 34.1468 162.96 32.6681C163.998 31.9756 165.03 31.1893 166.018 30.3814C166.335 33.4399 167.879 35.236 170.743 35.236C175.338 35.236 179.608 30.6339 180.928 28.7873C181.7 27.7053 181.318 26.7747 180.668 27.46L180.697 27.4384ZM171.601 19.9293C172.993 14.9376 175.179 11.8214 176.492 9.49151C178.194 6.46911 179.146 6.69994 178.49 10.3715C177.999 13.1487 175.027 18.9987 170.772 23.3268C170.988 22.2448 171.269 21.0978 171.594 19.9293H171.601ZM157.412 23.7235C158.523 19.7561 160.557 16.4596 161.683 14.9809C161.849 14.7573 162.029 14.6635 162.137 14.6635C162.209 14.6635 162.267 14.6924 162.318 14.7717C162.368 14.851 162.411 14.9953 162.411 15.2045C162.411 15.7888 162.296 16.6111 161.979 17.6931C161.755 18.4577 161.055 19.9437 160.081 21.5955C159.172 23.132 158.026 24.8271 156.792 26.241C156.958 25.4475 157.167 24.5963 157.412 23.7163V23.7235ZM146.275 26.7243C146.823 24.7622 147.754 23.0238 148.554 21.7759C148.951 21.1555 149.319 20.6506 149.579 20.3044C149.622 20.2466 149.665 20.1889 149.709 20.1384C149.716 20.2322 149.723 20.3404 149.723 20.4703C149.723 20.8814 149.658 21.4585 149.434 22.2375C149.276 22.7858 148.756 23.8894 148.028 25.1157C147.436 26.1111 146.715 27.1859 145.936 28.1236C146.037 27.6692 146.152 27.1931 146.289 26.717L146.275 26.7243ZM136.912 29.2634C137.28 27.9505 137.907 26.7747 138.441 25.938C138.586 25.7144 138.715 25.5196 138.838 25.3465C138.809 25.5557 138.759 25.8009 138.672 26.0895C138.622 26.2554 138.506 26.5367 138.347 26.8685C138.023 27.5394 137.504 28.441 136.898 29.285C136.898 29.2778 136.898 29.2706 136.898 29.2634H136.912Z" fill="#525459"/>
<path d="M26.9615 34.19C27.3294 34.8464 27.9281 35.171 28.7577 35.171C29.5223 35.171 30.5394 34.8824 31.4987 33.9519C31.8883 33.5768 32.1119 33.2522 32.2273 32.9925C32.6096 32.1558 32.1191 32.1486 31.7729 32.4443C30.8279 33.2594 29.8325 33.2234 29.479 33.1224C28.7288 32.906 29.0678 31.7879 29.1039 31.5571L29.3131 30.6121L29.6521 29.5229C31.3473 27.7196 32.725 25.8657 33.7782 23.9614C34.8313 22.0571 35.5166 20.1744 35.834 18.3133C35.935 17.7002 35.9638 16.9428 35.9422 16.6903C35.8917 16.0628 35.4084 15.6949 34.7375 16.2142C34.3047 16.5533 33.6267 17.3179 33.4752 17.4982C32.9414 18.1041 32.386 18.912 31.7512 19.8786C30.9866 21.0688 30.3735 22.1292 29.8974 23.0597C29.6305 23.5502 29.3924 24.0263 29.1977 24.4952C28.9741 24.9713 28.7216 25.5339 28.4403 26.1903L27.5458 28.5852C27.0986 29.119 26.6946 29.5806 26.3484 29.9774C25.5549 30.8574 24.9346 31.5499 24.3792 32.062C23.4414 32.9493 22.6624 33.3965 22.1574 33.3965C21.8905 33.3965 21.7102 33.2811 21.6164 33.0575C21.5227 32.8266 21.4938 32.5814 21.5371 32.3145C21.5659 32.0476 21.602 31.7951 21.6381 31.5643L21.8473 30.6193L22.1863 29.5301C23.8814 27.7268 25.2592 25.8729 26.3123 23.9686C27.3655 22.0643 28.0508 20.1816 28.3681 18.3205C28.4691 17.7074 28.498 16.95 28.4763 16.6975C28.4259 16.07 27.9281 15.6516 27.2717 16.2215C26.8533 16.5821 26.1897 17.354 26.0382 17.5343C25.5044 18.1402 24.9202 18.9193 24.2854 19.8858C23.5208 21.0761 22.9076 22.1364 22.4315 23.0669C22.1646 23.5575 21.9266 24.0335 21.7318 24.5024C21.5082 24.9785 21.2558 25.5411 20.9744 26.1975L20.282 28.0442C19.741 28.7294 19.2288 29.3354 18.7599 29.8475C17.9665 30.7131 17.2018 31.4272 16.4589 31.9899C15.0739 33.1007 13.8909 33.6562 12.9099 33.6562C12.4627 33.6562 12.1164 33.5047 11.8928 33.2017C11.7774 33.043 11.7053 32.805 11.6908 32.5165C13.4437 31.723 14.5185 31.0449 15.2759 30.4895C16.2208 29.797 17.4471 28.7294 17.8727 27.3084C18.053 26.7025 18.0602 26.1398 17.6563 25.7142C17.2596 25.2887 16.6969 25.0795 15.9828 25.0795C15.3769 25.0795 14.6916 25.267 13.9125 25.6349C13.1696 26.0244 12.4699 26.5221 11.8207 27.1353C11.4672 27.5032 11.1643 27.8566 10.9118 28.1956C10.6377 28.5491 10.378 28.9314 10.1183 29.3354C9.69994 30.0423 9.42583 30.7852 9.29599 31.5571C9.25271 31.8168 9.23107 32.062 9.22386 32.2928C8.84155 32.4443 8.48088 32.5814 8.15628 32.704C6.55491 33.3388 5.45127 33.6273 4.4991 33.6273C3.97253 33.6273 3.54694 33.4758 3.33054 33.1729C3.10692 32.8988 2.96265 32.4299 3.07086 31.7735C3.17906 31.1387 3.45316 30.3957 3.89318 29.5518C4.32598 28.7222 4.85977 28.0442 5.43684 27.4743C5.7903 27.0848 6.20867 26.7963 6.47557 26.6448C6.74967 26.4933 6.98772 26.4212 7.18969 26.4212C7.33396 26.4212 7.45658 26.4789 7.50708 26.5799C7.55757 26.6736 7.56479 26.854 7.53593 27.0054C7.50708 27.1713 7.4133 27.3445 7.24018 27.532C7.16084 27.6186 7.031 27.7196 6.8723 27.8278C6.71361 27.9504 6.50442 28.0874 6.23031 28.2389C6.32408 28.4409 6.56934 28.7944 6.79295 28.9314C7.05264 29.0901 7.1969 29.119 7.39166 29.119C7.91103 29.119 8.40154 28.9314 8.86319 28.5635C9.12287 28.376 9.31763 28.1524 9.44748 27.9071C9.5701 27.6763 9.65666 27.431 9.69994 27.1713C9.80814 26.5149 9.66388 26.0028 9.25993 25.6349C8.85598 25.267 8.30776 25.0795 7.60806 25.0795C6.90837 25.0795 6.14375 25.2814 5.36471 25.6854C4.58566 26.0893 3.81383 26.652 3.06364 27.3805C2.70297 27.734 2.40723 28.073 2.16918 28.3904C1.9095 28.7078 1.67146 29.0468 1.44785 29.4003C1.02226 30.1433 0.755363 30.8646 0.632736 31.5571C0.459615 32.5814 0.647163 33.447 1.18817 34.1539C1.49113 34.5146 1.83737 34.7815 2.22689 34.9401C2.59477 35.1133 3.03479 35.1998 3.53251 35.1998C4.78764 35.1998 5.5739 35.0051 7.18248 34.4352C7.84611 34.2044 8.58908 33.8654 9.37534 33.483C9.4619 33.7355 9.59174 33.9663 9.75044 34.1755C10.2409 34.8536 10.9911 35.1998 12.001 35.1998C13.184 35.1998 14.4752 34.7454 15.889 33.8437C16.6104 33.4109 17.31 32.8916 18.0025 32.2784C18.3993 31.925 18.8176 31.521 19.2649 31.0521C19.236 31.2108 19.2 31.3912 19.1639 31.5931C18.9763 32.6824 19.0773 33.5408 19.4524 34.1827C19.8203 34.8392 20.419 35.1638 21.2485 35.1638C22.0132 35.1638 22.8716 34.868 23.9319 34.0601C24.408 33.6922 25.0644 33.0863 25.6703 32.4876C25.9661 32.1991 26.2907 31.8456 26.6514 31.4345C26.6441 31.4849 26.6369 31.5354 26.6225 31.5931C26.435 32.6824 26.5359 33.5408 26.911 34.1827L26.9615 34.19ZM31.8089 23.1968C32.047 22.6053 32.386 21.8767 32.826 21.0256C33.3959 19.9291 33.7349 19.994 33.4608 21.1338C33.2372 22.0715 32.6312 23.305 31.9748 24.524C31.5781 25.231 31.0804 25.9739 30.5033 26.7458C30.9072 25.469 31.3401 24.286 31.8089 23.1896V23.1968ZM24.3503 23.1968C24.5883 22.6053 24.9274 21.8767 25.3674 21.0256C25.9372 19.9291 26.2763 19.994 26.0022 21.1338C25.7785 22.0715 25.1726 23.305 24.5162 24.524C24.1195 25.231 23.6217 25.9739 23.0447 26.7458C23.4486 25.469 23.8814 24.286 24.3503 23.1896V23.1968ZM12.0659 30.6698C12.4555 29.559 12.9892 28.614 13.6529 27.7917C14.0208 27.3589 14.3598 27.0343 14.6627 26.8179C14.9657 26.6015 15.2615 26.4861 15.5428 26.4861C15.6798 26.4861 15.9539 26.5871 16.0333 26.6881C16.228 26.9405 16.0982 27.2291 15.9972 27.5104C15.7592 28.1379 14.9801 29.1045 14.2876 29.6239C13.8116 29.9774 12.8666 30.54 11.9794 31.0521L12.0731 30.6698H12.0659Z" fill="#525459"/>
<path d="M124.618 28.9462C124.892 28.4484 125.05 27.994 124.993 27.7055C124.913 27.3159 124.74 27.2727 124.408 27.7776C123.947 28.4701 122.836 30.3311 120.758 31.9902C119.366 33.1011 117.996 33.6565 117.015 33.6565C116.568 33.6565 116.221 33.505 115.998 33.2021C115.882 33.0434 115.832 32.964 115.81 32.6755C117.613 31.7882 118.623 31.0453 119.374 30.497C120.318 29.8046 121.48 28.7442 121.97 27.3159C122.18 26.7244 122.158 26.1474 121.754 25.7218C121.35 25.2962 120.795 25.087 120.08 25.087C119.475 25.087 118.789 25.2746 118.01 25.6424C117.267 26.032 116.568 26.5297 115.918 27.1428C115.565 27.5107 115.262 27.8642 115.009 28.2032C114.735 28.5566 114.476 28.939 114.216 29.3429C113.798 30.0498 113.523 30.7928 113.394 31.5646C113.35 31.8243 113.336 32.1561 113.329 32.3869C112.218 32.9135 111.554 32.762 111.114 32.1056C111.035 31.9902 110.984 31.882 110.927 31.7738C111.049 31.6368 111.165 31.4997 111.28 31.3626C112.658 29.7036 113.437 28.6216 114.115 26.3349C114.209 26.0175 114.173 25.7218 113.884 25.5919C113.661 25.491 113.177 25.83 112.737 26.1618C111.641 26.9913 110.559 28.196 109.83 29.9055C109.599 30.4465 109.506 31.002 109.542 31.5141C109.462 31.644 109.39 31.7594 109.318 31.8532C108.445 32.9712 107.327 33.6926 107.068 33.3968C106.743 33.0289 106.959 32.1417 107.327 31.1535C107.572 30.4826 108.95 26.4431 108.95 26.4431C108.95 26.4431 109.051 26.1618 109.058 26.1257C109.094 25.9815 109.008 25.7362 108.885 25.6136C108.799 25.527 108.575 25.4837 108.402 25.5054C108.164 25.5342 107.911 25.6136 107.407 25.8372C106.829 26.0897 106.671 26.508 106.613 26.6451C106.613 26.6451 106.512 27.013 106.325 27.6045C105.69 28.3402 104.492 29.7252 104.161 30.0859C103.706 30.5836 102.819 31.5286 102.343 31.983C101.282 32.9712 100.316 33.6998 100.034 33.4185C99.7387 33.1227 100.417 31.9469 100.64 31.5069C100.864 31.0669 103.223 26.1907 103.223 26.1907C103.223 26.1907 103.36 25.9238 103.374 25.8949C103.432 25.7579 103.374 25.5054 103.266 25.3611C103.194 25.2673 102.978 25.188 102.804 25.188C102.566 25.188 102.307 25.2313 101.773 25.39C101.167 25.5631 100.951 25.9598 100.878 26.0897C100.878 26.0897 100.301 27.2871 99.8469 28.2176C99.7387 28.4484 99.5873 28.7514 99.4286 29.0904C99.0102 29.5737 98.6279 30.0065 98.4692 30.1869C98.0147 30.6846 97.1275 31.6295 96.6514 32.084C95.591 33.0722 94.6245 33.8008 94.3431 33.5194C94.0474 33.2237 94.7254 32.0479 94.9491 31.6079C95.0573 31.3987 96.0166 29.415 96.9832 27.4025C97.4521 27.4025 97.8128 27.4025 97.8633 27.4025C98.0508 27.4025 98.2528 27.2943 98.3393 27.2222C98.4259 27.15 98.563 26.912 98.6135 26.7677C98.6928 26.5369 98.7289 26.4071 98.7433 26.1907C98.7505 26.0825 98.6423 25.9887 98.4764 25.9887C98.4331 25.9887 98.1013 25.9887 97.6613 25.9887C98.4548 24.3368 99.1184 22.9663 99.1184 22.9663C99.1184 22.9663 99.2554 22.6994 99.2699 22.6705C99.3276 22.5335 99.2699 22.281 99.1617 22.1367C99.0895 22.043 98.8731 21.9636 98.7 21.9636C98.462 21.9636 98.2023 22.0069 97.6685 22.1656C97.0626 22.3387 96.8462 22.7355 96.774 22.8653C96.774 22.8653 96.197 24.0627 95.7425 24.9932C95.656 25.1736 95.4828 25.527 95.2664 25.9887C94.8625 25.9887 94.5595 25.9887 94.5163 25.9887C94.3359 25.9887 94.1844 26.0392 94.0907 26.0969C93.9969 26.1618 93.8382 26.371 93.7589 26.5297C93.6218 26.7894 93.6002 26.9048 93.6002 27.0923C93.6002 27.3448 93.8094 27.3953 93.9753 27.3953C94.0185 27.3953 94.2566 27.3953 94.6028 27.3953C94.4946 27.6189 94.3864 27.8497 94.271 28.0878C92.2152 31.2112 88.9692 33.4762 87.5914 33.6276C87.0648 33.6854 86.6393 33.4762 86.4229 33.1732C86.1992 32.8991 86.055 32.4302 86.1632 31.7738C86.2714 31.139 86.5455 30.3961 86.9855 29.5521C87.4183 28.7226 87.9521 28.0445 88.5292 27.4746C88.8826 27.0851 89.301 26.7966 89.5679 26.6451C89.842 26.4936 90.08 26.4215 90.282 26.4215C90.4263 26.4215 90.5489 26.4792 90.5994 26.5802C90.6499 26.674 90.6571 26.8543 90.6283 27.0058C90.5994 27.1717 90.5056 27.3448 90.3325 27.5323C90.2532 27.6189 90.1233 27.7199 89.9646 27.8281C89.8059 27.9507 89.5967 28.0878 89.3226 28.2393C89.4164 28.4412 89.6617 28.7947 89.8853 28.9317C90.145 29.0904 90.2892 29.1193 90.484 29.1193C91.0033 29.1193 91.4939 28.9317 91.9555 28.5639C92.2152 28.3763 92.41 28.1527 92.5398 27.9074C92.6624 27.6766 92.749 27.4314 92.7923 27.1717C92.9005 26.5153 92.7562 26.0031 92.3522 25.6352C91.9483 25.2673 91.4001 25.0798 90.7004 25.0798C90.0007 25.0798 89.2361 25.2818 88.457 25.6857C87.678 26.0897 86.9061 26.6523 86.156 27.3809C85.7953 27.7343 85.4995 28.0733 85.2615 28.3907C85.0018 28.7081 84.7638 29.0472 84.5402 29.4006C84.2444 29.9128 84.0352 30.4177 83.8838 30.9082C83.4077 31.4708 83.0903 31.8027 82.708 32.1778C81.8568 33.0289 81.1066 33.4112 80.9263 33.3896C80.6882 33.3608 81.085 32.5961 81.2148 32.2932C81.3446 31.9902 82.1237 30.2734 83.6313 27.3376C84.2444 26.1474 84.0497 25.7939 83.5087 25.5775C83.0758 25.4044 81.6404 24.9427 79.7505 25.729C79.397 25.8877 78.4088 26.3926 77.7235 26.9841C76.793 27.7415 76.0284 28.5566 75.408 29.4295C75.1411 29.8118 74.9247 30.1869 74.7372 30.562C74.0231 31.3338 73.4316 31.9469 72.9627 32.3725C72.7679 32.5384 72.5083 32.7548 72.1909 33.0145C71.8518 33.2742 71.6138 33.404 71.4768 33.404L71.3325 33.3319C71.2676 33.2381 71.2459 33.1444 71.2748 33.0434C71.3253 32.8342 71.5994 32.3148 72.0971 31.4925C72.5804 30.6702 73.1503 29.7685 73.7922 28.7875C74.0231 28.4412 75.3287 26.4143 75.5234 26.2556C75.7399 26.0825 75.4441 25.5775 75.0185 25.7579C74.3405 26.0392 73.648 26.2989 73.1286 26.4431C72.2269 26.6956 71.6499 26.7822 71.9673 26.2051C72.0899 25.9815 72.3712 25.6208 72.4217 25.5342C72.4722 25.4477 72.4001 25.0149 72.1043 25.0726C71.7581 25.1375 71.0367 25.4693 70.6039 25.931C70.1495 26.3926 69.8537 26.9192 69.7167 27.5035C69.6662 27.7055 69.6662 27.893 69.695 28.0733C69.1468 28.8596 68.0143 30.2879 66.0884 31.9614C64.7467 33.1299 63.5204 33.6421 62.6837 33.6709C62.2364 33.6854 61.6016 33.4473 61.479 32.6899C63.2824 31.8027 64.2922 31.0597 65.0424 30.5115C65.9874 29.819 67.2136 28.7514 67.6392 27.3304C67.8196 26.7244 67.8268 26.1618 67.4228 25.7362C67.0189 25.3106 66.4635 25.1014 65.7493 25.1014C65.1434 25.1014 64.4581 25.289 63.6791 25.6569C62.9361 26.0464 62.2364 26.5441 61.5872 27.1573C61.2338 27.5251 60.9308 27.8786 60.6783 28.2176C60.4042 28.5711 60.1445 28.9534 59.8849 29.3573C59.4665 30.0642 59.1924 30.8072 59.0625 31.579C59.0193 31.8387 59.0048 32.1705 58.9976 32.4014C58.536 32.6683 57.389 33.1732 56.7182 33.3824C56.1483 33.5627 56.0041 33.4906 55.9319 33.3968C55.7083 33.0794 56.2998 32.1128 56.5234 31.6728C56.6316 31.4636 57.5982 29.4583 58.5792 27.4169C59.5819 27.4169 60.6783 27.4169 60.7793 27.4169C60.9669 27.4169 61.1688 27.3087 61.2554 27.2366C61.342 27.1645 61.479 26.9264 61.5295 26.7822C61.6089 26.5513 61.6449 26.4215 61.6594 26.2051C61.6666 26.0969 61.5584 26.0031 61.3925 26.0031C61.3059 26.0031 60.26 26.0031 59.2573 26.0031C60.0724 24.308 60.7577 22.8869 60.7577 22.8869C60.7577 22.8869 60.8947 22.62 60.9092 22.5912C60.9669 22.4541 60.9092 22.2017 60.801 22.0574C60.7288 21.9636 60.5124 21.8843 60.3393 21.8843C60.1013 21.8843 59.8416 21.9276 59.3078 22.0863C58.7019 22.2594 58.4855 22.6561 58.4133 22.7859C58.4133 22.7859 56.9995 25.7434 56.1916 27.4169C55.8526 28.1166 55.2683 29.2708 54.4965 30.1508C52.419 32.5024 51.2144 33.606 50.6734 33.4329C50.356 33.3247 50.659 32.7115 51.2432 31.4131C51.5606 30.7062 52.6715 28.6288 52.9167 28.0301C53.1187 27.5468 53.2414 27.1284 53.263 27.0202C53.3496 26.5297 53.2486 26.0897 52.9672 25.7002C52.6643 25.3467 52.2748 25.1736 51.8059 25.1736C51.0557 25.1736 50.0891 25.7146 48.8917 26.7894C48.2136 27.3809 47.449 28.1743 46.605 29.1698L47.9972 26.2123C47.9972 26.2123 48.1199 25.9454 48.1343 25.9166C48.192 25.7795 48.1343 25.527 48.0261 25.3828C47.9539 25.289 47.7375 25.2096 47.5644 25.2096C47.3264 25.2096 47.0667 25.2529 46.5329 25.4116C45.9342 25.5847 45.7106 25.9815 45.6385 26.1113C45.6385 26.1113 45.285 26.8687 44.7945 27.9002C44.1309 28.6648 43.1571 29.7901 42.8685 30.1075C42.4141 30.6052 41.5268 31.5502 41.0508 32.0046C39.9904 32.9929 39.0238 33.7214 38.7425 33.4401C38.4467 33.1443 39.1248 31.9686 39.3484 31.5286C39.572 31.0885 41.9308 26.2123 41.9308 26.2123C41.9308 26.2123 42.0678 25.9454 42.0823 25.9166C42.14 25.7795 42.0823 25.527 41.9741 25.3828C41.9019 25.289 41.6855 25.2096 41.5124 25.2096C41.2744 25.2096 41.0147 25.2529 40.4809 25.4116C39.875 25.5847 39.6586 25.9815 39.5864 26.1113C39.5864 26.1113 39.0094 27.3087 38.5549 28.2393C38.1005 29.1698 37.0978 31.3122 36.6434 32.2787C36.3621 32.8775 36.2106 33.7214 36.7083 34.45C36.9752 34.8395 37.3864 35.0343 37.949 35.0343C38.6776 35.0343 39.5504 34.6736 40.5458 33.945C41.094 33.5483 41.7144 33.0145 42.3924 32.3509C42.5944 32.1561 42.782 31.9614 42.9623 31.781L42.9407 31.8315C42.4141 32.9496 42.0173 33.7936 41.9957 33.844C41.6711 34.6014 41.7072 35.0126 42.3059 35.0054C42.8902 35.0054 43.46 34.8251 43.46 34.8251C43.8712 34.7529 44.2174 34.4572 44.4915 33.9162C44.4915 33.9162 45.2561 32.7476 45.588 32.2715C45.9631 31.7305 46.6988 30.8361 46.9152 30.6125C47.8674 29.516 48.7546 28.6071 49.5409 27.9002C50.2117 27.3159 50.6229 27.0202 50.7888 27.0202L50.6085 27.4963L49.9088 29.0111C49.9088 29.0111 49.1009 30.7928 48.7186 31.5935C48.2136 32.6394 47.9612 33.9667 48.3363 34.6015C48.7041 35.2579 49.7357 35.1497 50.5291 34.9116C51.7987 34.5365 52.9672 33.303 53.8473 32.3437C53.8401 32.3653 53.8256 32.3942 53.8184 32.4086C53.5371 33.0073 53.3856 33.8513 53.8833 34.5798C54.1502 34.9693 54.5686 35.2579 55.124 35.1641C56.6461 34.8972 56.8336 34.6808 59.214 33.6276C59.3006 33.8801 59.3799 33.9811 59.5386 34.1903C60.0291 34.8683 60.6278 35.1497 61.6377 35.2146C62.8279 35.2939 64.1119 34.7962 65.5185 33.8801C66.6871 33.1155 68.7068 31.1102 70.4885 28.7658C70.5462 28.7658 70.6039 28.7803 70.6616 28.7803C70.9357 28.7803 71.3108 28.6793 71.7941 28.4773L71.924 28.4124C71.6282 28.773 71.3397 29.1481 71.0512 29.5377C70.7698 29.9272 69.5291 31.5286 69.017 33.1299C68.8367 33.707 68.9376 34.2119 69.1829 34.6015C69.6662 35.2074 70.7554 35.532 72.5083 34.2408C72.905 33.945 73.4316 33.469 74.088 32.8197C74.0591 33.368 74.1313 33.8368 74.3188 34.2191C75.0402 35.6546 76.8291 35.0703 77.9832 33.9378C78.4665 33.469 78.8993 32.9857 78.8993 32.9857C78.8993 32.9857 78.8272 33.2309 78.7911 33.3752C78.4593 34.9044 79.4259 35.1064 79.9525 35.0559C80.6522 34.991 81.4168 34.8034 82.4266 33.9378C82.8017 33.6132 83.2345 33.2021 83.689 32.726C83.7611 33.2525 83.9415 33.7358 84.2588 34.1542C84.5618 34.5149 84.9081 34.7818 85.2976 34.9405C85.6655 35.1136 86.1055 35.2002 86.6032 35.2002C88.0747 35.2002 90.3325 34.1326 92.5037 31.7233C92.3739 31.9974 92.2657 32.221 92.208 32.3509C91.9267 32.9496 91.7752 33.7936 92.2729 34.5221C92.5398 34.9116 92.951 35.1064 93.5136 35.1064C94.2422 35.1064 95.115 34.7457 96.1104 34.0172C96.6081 33.6565 97.1636 33.1876 97.7623 32.6106C97.5892 33.1588 97.5603 33.8296 97.9643 34.4283C98.2311 34.8179 98.6423 35.0126 99.205 35.0126C99.9335 35.0126 100.806 34.6519 101.802 33.9234C102.35 33.5267 102.97 32.9929 103.648 32.3292C104.348 31.644 104.904 31.0525 105.329 30.598C105.149 31.1607 104.983 31.6945 104.853 32.1056C104.651 32.7332 104.536 33.9595 105.062 34.6952C105.336 35.0775 105.812 35.1785 106.368 35.1064C107.089 35.0126 108.15 34.5798 109.044 33.7286C109.268 33.5194 109.571 33.2021 109.917 32.8414C109.938 32.8775 109.953 32.9063 109.975 32.9424C110.559 33.7863 111.937 34.1759 113.487 33.6204C113.574 33.8729 113.653 33.9739 113.812 34.1831C114.303 34.8611 115.053 35.2074 116.063 35.2074C117.246 35.2074 118.76 34.789 120.145 33.8513C122.482 32.2715 123.673 30.5403 124.553 28.939L124.618 28.9462ZM116.142 30.6702C116.531 29.5593 117.065 28.6144 117.729 27.792C118.097 27.3592 118.436 27.0346 118.739 26.8182C119.042 26.6018 119.337 26.4864 119.619 26.4864C119.756 26.4864 120.03 26.5874 120.109 26.6884C120.304 26.9409 120.174 27.2294 120.073 27.5107C119.835 28.1383 119.056 29.1049 118.364 29.617C117.888 29.9705 116.87 30.7423 115.983 31.2544L116.142 30.6629V30.6702ZM61.8469 30.6702C62.2364 29.5593 62.7702 28.6144 63.4338 27.792C63.8017 27.3592 64.1408 27.0346 64.4437 26.8182C64.7467 26.6018 65.0424 26.4864 65.3237 26.4864C65.4608 26.4864 65.7349 26.5874 65.8143 26.6884C66.009 26.9409 65.8792 27.2294 65.7782 27.5107C65.5401 28.1383 64.7611 29.1049 64.0686 29.617C63.5925 29.9705 62.5754 30.7423 61.6882 31.2544L61.8469 30.6629V30.6702ZM78.6973 31.6368C77.673 32.8414 76.9445 33.4473 76.5045 33.4617C76.4251 33.4617 76.3602 33.404 76.3097 33.2886C76.2592 33.166 76.2592 32.9857 76.3097 32.7476C76.3674 32.4879 76.4684 32.1994 76.6127 31.882C76.7569 31.5646 76.9373 31.2256 77.1465 30.8649C77.5937 30.1003 78.178 29.3068 78.8993 28.4845C79.4331 27.8353 79.938 27.3592 80.3997 27.0563C81.5466 26.3061 82.0155 26.7244 81.9001 26.9192C80.6161 29.0904 79.7144 30.4249 78.7045 31.6368H78.6973Z" fill="#525459"/>
<path d="M41.4654 23.4711C41.6602 23.6081 41.8477 23.6947 42.0208 23.7308C42.1651 23.7813 42.3599 23.8101 42.6051 23.8101C42.9514 23.8101 43.2182 23.6731 43.3986 23.3989C43.5717 23.1176 43.7088 22.7209 43.7881 22.2087C43.7881 22.0428 43.7376 21.9058 43.6583 21.7832C43.5501 21.6677 43.4419 21.5884 43.3409 21.5379L43.1317 21.4081L42.8504 21.1989C42.6195 21.033 42.4248 20.9536 42.2661 20.9536C42.1795 20.9536 42.0713 21.0113 41.9343 21.1195C41.7684 21.2421 41.5952 21.4369 41.4149 21.7038C41.1119 22.1438 40.946 22.4468 40.9172 22.6199C40.8883 22.7858 40.9172 22.9373 40.9965 23.0743C41.0831 23.2114 41.2346 23.3485 41.4582 23.4783L41.4654 23.4711Z" fill="#525459"/>
<path d="M102.739 23.4711C102.934 23.6081 103.121 23.6947 103.294 23.7308C103.439 23.7813 103.633 23.8101 103.879 23.8101C104.225 23.8101 104.492 23.6731 104.672 23.3989C104.845 23.1176 104.975 22.7209 105.062 22.2087C105.062 22.0428 105.011 21.9058 104.932 21.7832C104.823 21.6677 104.715 21.5884 104.614 21.5379L104.405 21.4081L104.124 21.1989C103.893 21.033 103.698 20.9536 103.54 20.9536C103.453 20.9536 103.345 21.0113 103.208 21.1195C103.042 21.2421 102.869 21.4369 102.688 21.7038C102.385 22.1438 102.219 22.4468 102.191 22.6199C102.162 22.7858 102.191 22.9373 102.27 23.0743C102.357 23.2114 102.508 23.3485 102.732 23.4783L102.739 23.4711Z" fill="#525459"/>
<path d="M3.84758 44.4474V49.5833C3.84758 49.8502 3.90529 49.8935 4.17218 49.8935H4.35973V50.045C3.96299 50.1315 3.39314 50.3551 3.321 50.3551C3.25608 50.3551 3.23444 50.2758 3.23444 50.1676V49.7925H3.22002C2.93148 50.0955 2.48425 50.3551 2.03702 50.3551C1.16421 50.3551 0.601562 49.6122 0.601562 48.6816C0.601562 47.6285 1.45995 46.7268 2.50589 46.7268C2.75836 46.7268 3.01083 46.7701 3.23444 46.8639V45.5006C3.23444 45.0605 3.16231 44.9812 2.82328 44.9018V44.7792C3.22723 44.6494 3.4797 44.5267 3.61675 44.4474C3.71774 44.3897 3.75381 44.3608 3.78987 44.3608C3.83315 44.3608 3.84758 44.4185 3.84758 44.4546V44.4474ZM2.48425 49.8863C2.76557 49.8863 3.23444 49.6915 3.23444 49.4391V47.6574C3.23444 47.2318 2.92427 46.9649 2.40491 46.9649C1.85669 46.9649 1.26519 47.3832 1.26519 48.4075C1.26519 49.2443 1.77734 49.8863 2.48425 49.8863Z" fill="#525459"/>
<path d="M6.11326 46.7197C6.14932 46.7197 6.16375 46.7774 6.16375 46.8135V49.7565C6.16375 49.9729 6.22146 50.0306 6.52442 50.0306H6.6759V50.2254C6.38736 50.2254 6.10604 50.211 5.82472 50.211C5.56504 50.211 5.29093 50.211 5.03125 50.2254V50.0306H5.17552C5.39192 50.0306 5.5434 50.0234 5.5434 49.7926V47.7007C5.5434 47.3833 5.45684 47.3184 5.14666 47.1525V47.0299C5.67324 46.8712 5.868 46.799 5.95456 46.763C6.03391 46.7269 6.05555 46.7197 6.10604 46.7197H6.11326ZM6.23588 45.1472C6.23588 45.3564 6.06276 45.5295 5.86079 45.5295C5.66603 45.5295 5.48569 45.3492 5.48569 45.1472C5.48569 44.9524 5.67324 44.7793 5.86079 44.7793C6.06998 44.7793 6.23588 44.9524 6.23588 45.1472Z" fill="#525459"/>
<path d="M10.4473 46.9581C10.4978 46.9581 10.7286 46.9581 10.9378 46.922V47.2899L10.1732 47.2611C10.303 47.4198 10.3751 47.6362 10.3751 47.8453C10.3751 48.4729 9.82692 49.0283 8.97575 49.0283C8.8459 49.0283 8.67278 49.0139 8.52852 48.9851C8.38425 49.0933 8.29769 49.1942 8.29769 49.3818C8.29769 49.627 8.49245 49.7352 8.83869 49.7352H9.92791C10.541 49.7497 10.9594 49.93 10.9594 50.5143C10.9594 50.8173 10.5771 52.0002 8.91804 52.0002C8.05243 52.0002 7.46094 51.6251 7.46094 51.1419C7.46094 50.7018 7.78554 50.3844 8.36261 50.2546V50.2402C7.99473 50.132 7.68455 49.9012 7.68455 49.5621C7.68455 49.5044 7.68455 49.3962 7.72062 49.3241C7.98751 49.1726 8.26883 49.0211 8.36261 48.9418C7.92981 48.7182 7.64127 48.4296 7.64127 47.9175C7.64127 47.2034 8.18949 46.7417 9.08395 46.7417C9.62495 46.7417 9.99283 46.9797 10.4617 46.9797L10.4473 46.9581ZM8.01637 50.9615C8.01637 51.4232 8.39868 51.7478 9.03345 51.7478C9.61052 51.7478 10.3824 51.4953 10.3824 50.8605C10.3824 50.3628 9.86299 50.2402 9.24985 50.2402C8.59344 50.2402 8.01637 50.3267 8.01637 50.9615ZM9.01181 48.8264C9.47347 48.8264 9.762 48.4729 9.762 47.9247C9.762 47.4702 9.52396 46.922 8.96132 46.922C8.5213 46.922 8.29047 47.3548 8.29047 47.7949C8.29047 48.3142 8.5213 48.8264 9.01181 48.8264Z" fill="#525459"/>
<path d="M12.8867 46.7197C12.9228 46.7197 12.9372 46.7774 12.9372 46.8135V49.7565C12.9372 49.9729 12.9949 50.0306 13.2979 50.0306H13.4493V50.2254C13.1608 50.2254 12.8795 50.211 12.5982 50.211C12.3385 50.211 12.0644 50.211 11.8047 50.2254V50.0306H11.949C12.1654 50.0306 12.3168 50.0234 12.3168 49.7926V47.7007C12.3168 47.3833 12.2303 47.3184 11.9201 47.1525V47.0299C12.4467 46.8712 12.6414 46.799 12.728 46.763C12.8073 46.7269 12.829 46.7197 12.8795 46.7197H12.8867ZM13.0093 45.1472C13.0093 45.3564 12.8362 45.5295 12.6342 45.5295C12.4395 45.5295 12.2591 45.3492 12.2591 45.1472C12.2591 44.9524 12.4467 44.7793 12.6342 44.7793C12.8434 44.7793 13.0093 44.9524 13.0093 45.1472Z" fill="#525459"/>
<path d="M15.2743 46.0498V46.8361H16.4212V47.2544H15.2743V49.3175C15.2743 49.707 15.4835 49.9378 15.7576 49.9378C15.9668 49.9378 16.1183 49.8657 16.2986 49.7142L16.414 49.8296C16.1399 50.1181 15.8009 50.3562 15.3897 50.3562C14.8632 50.3562 14.6612 50.0532 14.6612 49.6493V47.2616H14.1562V47.139C14.6756 46.7639 14.8776 46.5547 15.1878 46.057H15.2815L15.2743 46.0498Z" fill="#525459"/>
<path d="M18.9067 46.7197C19.2962 46.7197 19.8444 46.965 19.8444 47.3689V49.5041C19.8444 49.7782 19.9382 49.9369 20.1185 49.9369C20.2195 49.9369 20.3349 49.8936 20.4071 49.8071L20.4792 49.9369C20.27 50.1244 20.0248 50.3481 19.7146 50.3481C19.4044 50.3481 19.2529 50.0595 19.2385 49.7854C18.8923 50.1028 18.546 50.3481 18.0483 50.3481C17.5506 50.3481 17.2188 50.0018 17.2188 49.5979C17.2188 48.9775 17.6083 48.8693 19.2313 48.3067V47.8017C19.2313 47.4122 19.0149 47.1381 18.4811 47.1381C18.1132 47.1381 17.8968 47.3761 17.8968 47.6863C17.8968 47.9027 17.6299 48.0037 17.464 48.0037C17.3486 48.0037 17.327 47.9027 17.327 47.845C17.327 47.4194 17.7237 47.2319 18.2431 46.9578C18.5099 46.8207 18.6181 46.7269 18.9067 46.7269V46.7197ZM17.8319 49.4392C17.8319 49.7421 18.0771 49.9946 18.3801 49.9946C18.7408 49.9946 18.9788 49.7638 19.2313 49.5474V48.5303C19.1952 48.5447 19.0077 48.6096 18.7841 48.6746C18.2503 48.8405 17.8319 49.0569 17.8319 49.4392Z" fill="#525459"/>
<path d="M22.1872 44.4478V49.7785C22.1872 49.9804 22.2737 50.0381 22.4974 50.0381H22.7066V50.2329C22.418 50.2329 22.1295 50.2185 21.8409 50.2185C21.5813 50.2185 21.3144 50.2185 21.0547 50.2329V50.0381H21.235C21.4226 50.0381 21.5741 50.0309 21.5741 49.7929V45.5442C21.5741 45.0826 21.538 44.9888 21.1629 44.895V44.7724C21.5957 44.6281 21.8337 44.5127 21.9564 44.4406C22.0646 44.3829 22.0934 44.354 22.1295 44.354C22.1655 44.354 22.1872 44.3901 22.1872 44.4478Z" fill="#525459"/>
<path d="M28.4581 47.2536C28.4581 47.434 28.3499 47.5927 28.1623 47.5927C27.8305 47.5927 27.8594 46.9723 27.1308 46.9723C26.4816 46.9723 26.1209 47.6864 26.1209 48.2924C26.1209 49.1363 26.6764 49.7855 27.4698 49.7855C27.8594 49.7855 28.1191 49.6485 28.4076 49.4248L28.5374 49.5547C28.1623 49.9947 27.643 50.3554 27.037 50.3554C26.2219 50.3554 25.5078 49.5619 25.5078 48.7612C25.5078 47.6504 26.3013 46.7271 27.4194 46.7271C27.9459 46.7271 28.4581 46.9002 28.4581 47.2536Z" fill="#525459"/>
<path d="M32.9246 48.5231C32.9246 49.4824 32.1672 50.3481 31.1501 50.3481C30.0681 50.3481 29.2891 49.5979 29.2891 48.5519C29.2891 47.506 30.0393 46.7197 31.0563 46.7197C32.1744 46.7197 32.9246 47.4699 32.9246 48.5159V48.5231ZM31.1429 50.1533C31.8859 50.1533 32.2177 49.3238 32.2177 48.5952C32.2177 47.946 31.8787 46.9145 31.0563 46.9145C30.3711 46.9145 30.0032 47.7007 30.0032 48.4726C30.0032 49.1651 30.3711 50.1533 31.1501 50.1533H31.1429Z" fill="#525459"/>
<path d="M34.7341 46.8135V47.2968C35.3688 46.8207 35.7007 46.7197 36.0685 46.7197C36.4797 46.7197 36.7754 46.9145 36.8836 47.3112C37.4463 46.9073 37.7493 46.7197 38.2109 46.7197C38.8457 46.7197 39.127 47.1886 39.127 47.8089V49.7998C39.127 49.9657 39.228 50.0379 39.43 50.0379H39.6319V50.2326C39.365 50.2326 39.0837 50.2182 38.8168 50.2182C38.5499 50.2182 38.2758 50.2182 38.0089 50.2326V50.0379H38.1965C38.4201 50.0379 38.5211 49.9946 38.5211 49.7926V48.0542C38.5211 47.405 38.2903 47.1381 37.8502 47.1381C37.6122 47.1381 37.2515 47.2968 36.9414 47.506V49.7998C36.9414 49.9585 37.0351 50.0379 37.2443 50.0379H37.4751V50.2326C37.1794 50.2326 36.963 50.2182 36.5735 50.2182C36.321 50.2182 36.0758 50.2182 35.8161 50.2326V50.0379H36.0253C36.22 50.0379 36.3282 49.9946 36.3282 49.7926V48.0542C36.3282 47.405 36.0974 47.1381 35.6574 47.1381C35.4193 47.1381 35.0587 47.2968 34.7485 47.506V49.7638C34.7485 49.9513 34.8062 50.0307 35.0731 50.0307H35.2751V50.2254C34.9865 50.2254 34.7052 50.211 34.4167 50.211C34.1281 50.211 33.8685 50.211 33.6016 50.2254V50.0307H33.818C33.9767 50.0307 34.1354 50.0162 34.1354 49.7926V47.6791C34.1354 47.405 34.056 47.3184 33.7314 47.1525V47.0299C34.2291 46.8784 34.46 46.7919 34.5393 46.763C34.597 46.7342 34.6475 46.7197 34.6908 46.7197C34.7268 46.7197 34.7485 46.7702 34.7485 46.8135H34.7341Z" fill="#525459"/>
<path d="M41.3825 46.8135V47.2968C42.0173 46.8207 42.3491 46.7197 42.717 46.7197C43.1281 46.7197 43.4239 46.9145 43.5321 47.3112C44.0947 46.9073 44.3977 46.7197 44.8593 46.7197C45.4941 46.7197 45.7754 47.1886 45.7754 47.8089V49.7998C45.7754 49.9657 45.8764 50.0379 46.0784 50.0379H46.2804V50.2326C46.0135 50.2326 45.7322 50.2182 45.4653 50.2182C45.1984 50.2182 44.9243 50.2182 44.6574 50.2326V50.0379H44.8449C45.0685 50.0379 45.1695 49.9946 45.1695 49.7926V48.0542C45.1695 47.405 44.9387 47.1381 44.4987 47.1381C44.2606 47.1381 43.9 47.2968 43.5898 47.506V49.7998C43.5898 49.9585 43.6836 50.0379 43.8928 50.0379H44.1236V50.2326C43.8278 50.2326 43.6114 50.2182 43.2219 50.2182C42.9694 50.2182 42.7242 50.2182 42.4645 50.2326V50.0379H42.6737C42.8685 50.0379 42.9767 49.9946 42.9767 49.7926V48.0542C42.9767 47.405 42.7458 47.1381 42.3058 47.1381C42.0678 47.1381 41.7071 47.2968 41.3969 47.506V49.7638C41.3969 49.9513 41.4546 50.0307 41.7215 50.0307H41.9235V50.2254C41.635 50.2254 41.3536 50.211 41.0651 50.211C40.7766 50.211 40.5169 50.211 40.25 50.2254V50.0307H40.4664C40.6251 50.0307 40.7838 50.0162 40.7838 49.7926V47.6791C40.7838 47.405 40.7044 47.3184 40.3798 47.1525V47.0299C40.8776 46.8784 41.1084 46.7919 41.1877 46.763C41.2454 46.7342 41.2959 46.7197 41.3392 46.7197C41.3753 46.7197 41.3969 46.7702 41.3969 46.8135H41.3825Z" fill="#525459"/>
<path d="M47.8326 47.0156V49.0642C47.8326 49.6268 48.049 49.9298 48.4962 49.9298C48.7631 49.9298 49.1094 49.7278 49.434 49.4609V47.3834C49.434 47.2752 49.2753 47.1887 48.7848 47.0661V46.929C49.5999 46.8785 49.8812 46.8208 49.9894 46.8208C50.0399 46.8208 50.0471 46.8641 50.0471 46.9218V49.7999C50.0471 49.8937 50.0687 49.9658 50.2491 49.9514H50.5737V50.1101C50.1986 50.1534 49.8235 50.2472 49.4628 50.3481L49.4268 50.3265V49.7061C48.9867 50.0668 48.6189 50.3481 48.0634 50.3481C47.5729 50.3481 47.2195 49.9947 47.2195 49.4465V47.4339C47.2195 47.1454 47.068 47.0588 46.7578 47.0228V46.8785C47.0319 46.8713 47.3998 46.8424 47.71 46.828C47.8326 46.8208 47.8326 46.8641 47.8326 47.0156Z" fill="#525459"/>
<path d="M52.3446 46.792V47.3041C52.7847 46.9867 53.1597 46.7271 53.6791 46.7271C54.2922 46.7271 54.5664 47.1599 54.5664 47.8091V49.8072C54.5664 49.9514 54.6385 50.0452 54.8765 50.0452H55.0929V50.24C54.7972 50.24 54.5086 50.2255 54.2057 50.2255C53.9532 50.2255 53.7007 50.2255 53.4411 50.24V50.0452H53.643C53.8234 50.0452 53.9532 50.0236 53.9532 49.7927V47.8018C53.9532 47.4123 53.7296 47.1454 53.2535 47.1454C53.0083 47.1454 52.6476 47.3258 52.3519 47.5133V49.7855C52.3519 49.9947 52.4528 50.0452 52.6548 50.0452H52.8784V50.24C52.5899 50.24 52.3014 50.2255 52.0128 50.2255C51.7531 50.2255 51.4862 50.2255 51.2266 50.24V50.0452H51.4285C51.6377 50.0452 51.7387 50.0019 51.7387 49.7999V47.7369C51.7387 47.47 51.6305 47.3763 51.2915 47.2464V47.1021L51.7748 46.9362C51.9335 46.8785 52.121 46.8064 52.3086 46.7271C52.3374 46.7271 52.3519 46.7559 52.3519 46.7992L52.3446 46.792Z" fill="#525459"/>
<path d="M56.8242 46.7197C56.8603 46.7197 56.8747 46.7774 56.8747 46.8135V49.7565C56.8747 49.9729 56.9324 50.0306 57.2354 50.0306H57.3868V50.2254C57.0983 50.2254 56.817 50.211 56.5357 50.211C56.276 50.211 56.0019 50.211 55.7422 50.2254V50.0306H55.8865C56.1029 50.0306 56.2543 50.0234 56.2543 49.7926V47.7007C56.2543 47.3833 56.1678 47.3184 55.8576 47.1525V47.0299C56.3842 46.8712 56.5789 46.799 56.6655 46.763C56.7448 46.7269 56.7665 46.7197 56.817 46.7197H56.8242ZM56.9468 45.1472C56.9468 45.3564 56.7737 45.5295 56.5717 45.5295C56.377 45.5295 56.1966 45.3492 56.1966 45.1472C56.1966 44.9524 56.3842 44.7793 56.5717 44.7793C56.7809 44.7793 56.9468 44.9524 56.9468 45.1472Z" fill="#525459"/>
<path d="M61.1221 47.2536C61.1221 47.434 61.0139 47.5927 60.8264 47.5927C60.4946 47.5927 60.5234 46.9723 59.7949 46.9723C59.1457 46.9723 58.785 47.6864 58.785 48.2924C58.785 49.1363 59.3404 49.7855 60.1339 49.7855C60.5234 49.7855 60.7831 49.6485 61.0716 49.4248L61.2015 49.5547C60.8264 49.9947 60.307 50.3554 59.7011 50.3554C58.886 50.3554 58.1719 49.5619 58.1719 48.7612C58.1719 47.6504 58.9653 46.7271 60.0834 46.7271C60.61 46.7271 61.1221 46.9002 61.1221 47.2536Z" fill="#525459"/>
<path d="M63.6957 46.7197C64.0853 46.7197 64.6335 46.965 64.6335 47.3689V49.5041C64.6335 49.7782 64.7273 49.9369 64.9076 49.9369C65.0086 49.9369 65.124 49.8936 65.1961 49.8071L65.2683 49.9369C65.0591 50.1244 64.8138 50.3481 64.5036 50.3481C64.1935 50.3481 64.042 50.0595 64.0276 49.7854C63.6813 50.1028 63.3351 50.3481 62.8373 50.3481C62.3396 50.3481 62.0078 50.0018 62.0078 49.5979C62.0078 48.9775 62.3973 48.8693 64.0203 48.3067V47.8017C64.0203 47.4122 63.8039 47.1381 63.2702 47.1381C62.9023 47.1381 62.6859 47.3761 62.6859 47.6863C62.6859 47.9027 62.419 48.0037 62.2531 48.0037C62.1377 48.0037 62.116 47.9027 62.116 47.845C62.116 47.4194 62.5127 47.2319 63.0321 46.9578C63.299 46.8207 63.4072 46.7269 63.6957 46.7269V46.7197ZM62.6209 49.4392C62.6209 49.7421 62.8662 49.9946 63.1692 49.9946C63.5298 49.9946 63.7679 49.7638 64.0203 49.5474V48.5303C63.9843 48.5447 63.7967 48.6096 63.5731 48.6746C63.0393 48.8405 62.6209 49.0569 62.6209 49.4392Z" fill="#525459"/>
<path d="M66.8993 46.0498V46.8361H68.0462V47.2544H66.8993V49.3175C66.8993 49.707 67.1085 49.9378 67.3826 49.9378C67.5918 49.9378 67.7433 49.8657 67.9236 49.7142L68.039 49.8296C67.7649 50.1181 67.4259 50.3562 67.0147 50.3562C66.4882 50.3562 66.2862 50.0532 66.2862 49.6493V47.2616H65.7812V47.139C66.3006 46.7639 66.5026 46.5547 66.8128 46.057H66.9065L66.8993 46.0498Z" fill="#525459"/>
<path d="M69.8945 46.7197C69.9306 46.7197 69.945 46.7774 69.945 46.8135V49.7565C69.945 49.9729 70.0027 50.0306 70.3057 50.0306H70.4571V50.2254C70.1686 50.2254 69.8873 50.211 69.606 50.211C69.3463 50.211 69.0722 50.211 68.8125 50.2254V50.0306H68.9568C69.1732 50.0306 69.3246 50.0234 69.3246 49.7926V47.7007C69.3246 47.3833 69.2381 47.3184 68.9279 47.1525V47.0299C69.4545 46.8712 69.6493 46.799 69.7358 46.763C69.8152 46.7269 69.8368 46.7197 69.8873 46.7197H69.8945ZM70.0171 45.1472C70.0171 45.3564 69.844 45.5295 69.642 45.5295C69.4473 45.5295 69.2669 45.3492 69.2669 45.1472C69.2669 44.9524 69.4545 44.7793 69.642 44.7793C69.8512 44.7793 70.0171 44.9524 70.0171 45.1472Z" fill="#525459"/>
<path d="M74.6668 48.5231C74.6668 49.4824 73.9094 50.3481 72.8923 50.3481C71.8103 50.3481 71.0312 49.5979 71.0312 48.5519C71.0312 47.506 71.7814 46.7197 72.7985 46.7197C73.9166 46.7197 74.6668 47.4699 74.6668 48.5159V48.5231ZM72.8851 50.1533C73.6281 50.1533 73.9599 49.3238 73.9599 48.5952C73.9599 47.946 73.6209 46.9145 72.7985 46.9145C72.1133 46.9145 71.7454 47.7007 71.7454 48.4726C71.7454 49.1651 72.1133 50.1533 72.8923 50.1533H72.8851Z" fill="#525459"/>
<path d="M76.4071 46.792V47.3041C76.8472 46.9867 77.2222 46.7271 77.7416 46.7271C78.3547 46.7271 78.6289 47.1599 78.6289 47.8091V49.8072C78.6289 49.9514 78.701 50.0452 78.939 50.0452H79.1554V50.24C78.8597 50.24 78.5711 50.2255 78.2682 50.2255C78.0157 50.2255 77.7632 50.2255 77.5036 50.24V50.0452H77.7055C77.8859 50.0452 78.0157 50.0236 78.0157 49.7927V47.8018C78.0157 47.4123 77.7921 47.1454 77.316 47.1454C77.0708 47.1454 76.7101 47.3258 76.4144 47.5133V49.7855C76.4144 49.9947 76.5153 50.0452 76.7173 50.0452H76.9409V50.24C76.6524 50.24 76.3639 50.2255 76.0753 50.2255C75.8156 50.2255 75.5487 50.2255 75.2891 50.24V50.0452H75.491C75.7002 50.0452 75.8012 50.0019 75.8012 49.7999V47.7369C75.8012 47.47 75.693 47.3763 75.354 47.2464V47.1021L75.8373 46.9362C75.996 46.8785 76.1835 46.8064 76.3711 46.7271C76.3999 46.7271 76.4144 46.7559 76.4144 46.7992L76.4071 46.792Z" fill="#525459"/>
<path d="M83.2864 46.7197C83.5316 46.7197 83.8635 46.7847 84.1664 46.9433L84.2241 47.7296H84.0438C83.9572 47.2391 83.6975 46.965 83.1998 46.965C82.8896 46.965 82.5939 47.1453 82.5939 47.4699C82.5939 48.3716 84.39 48.0903 84.39 49.3021C84.39 49.8936 83.8851 50.3481 83.0772 50.3481C82.7598 50.3481 82.3775 50.2399 82.1178 50.0884L82.0312 49.2011L82.1683 49.1651C82.2909 49.7782 82.6516 50.1028 83.1421 50.1028C83.5533 50.1028 83.7697 49.872 83.7697 49.5546C83.7697 48.6457 82.089 48.9414 82.089 47.7007C82.089 47.2174 82.4929 46.7197 83.2864 46.7197Z" fill="#525459"/>
<path d="M88.1137 47.9388C88.1137 47.9749 88.1137 48.0253 88.1065 48.0614L88.0344 48.1047H85.8704C85.8559 48.2057 85.8559 48.3139 85.8704 48.5447C85.9136 49.2661 86.3681 49.8864 87.0028 49.8864C87.4356 49.8864 87.7675 49.6484 88.0416 49.367L88.1498 49.4752C87.717 50.0595 87.2553 50.3481 86.7215 50.3481C85.5818 50.3481 85.25 49.3021 85.25 48.6601C85.25 47.1597 86.2671 46.7197 86.8081 46.7197C87.5006 46.7197 88.1137 47.167 88.1137 47.9388ZM87.2337 47.8594C87.3852 47.8594 87.4501 47.8089 87.4501 47.6575C87.4501 47.2896 87.2265 46.9578 86.772 46.9578C86.3176 46.9578 85.9858 47.2968 85.892 47.8594H87.2337Z" fill="#525459"/>
<path d="M89.7827 46.7201C89.8404 46.7201 89.8549 46.7562 89.8549 46.8139V47.5136H89.8693C90.2011 46.987 90.4896 46.7201 90.8575 46.7201C91.0523 46.7201 91.2975 46.8499 91.2975 47.1313C91.2975 47.3404 91.1533 47.5208 90.9369 47.5208C90.6988 47.5208 90.6916 47.3332 90.4392 47.3332C90.2516 47.3332 89.8693 47.5496 89.8693 47.9608V49.7858C89.8693 50.0383 90.0496 50.031 90.2444 50.031H90.67V50.2258C90.3021 50.2186 89.9198 50.2114 89.5447 50.2114C89.2634 50.2114 88.9676 50.2114 88.6719 50.2258V50.031H88.9099C89.1191 50.031 89.2489 50.0094 89.2489 49.7858V47.6146C89.2489 47.3909 89.0037 47.3405 88.845 47.2683V47.1529C89.4293 46.9077 89.7106 46.7129 89.7827 46.7129V46.7201Z" fill="#525459"/>
<path d="M91.9922 46.8353C92.2519 46.8426 92.5043 46.8498 92.7712 46.8498C93.0381 46.8498 93.305 46.8353 93.5647 46.8353V47.0301C93.1752 47.0301 93.1247 47.0734 93.1247 47.2393C93.1247 47.3042 93.1535 47.3908 93.204 47.5134C93.4493 48.141 93.6729 48.7829 93.9109 49.4105L94.5529 47.8236C94.6106 47.6937 94.7044 47.4124 94.7044 47.2104C94.7044 47.1022 94.6683 47.059 94.2933 47.0229V46.8281C94.4808 46.8353 94.6683 46.8426 94.8559 46.8426C95.0867 46.8426 95.3176 46.8281 95.5484 46.8281V47.0229C95.2382 47.0301 95.1156 47.1239 94.9352 47.5783L93.8244 50.341H93.6296L92.5981 47.6577C92.3817 47.095 92.3096 47.0301 92.0427 47.0301H91.9922V46.8353Z" fill="#525459"/>
<path d="M97.2148 46.7197C97.2509 46.7197 97.2653 46.7774 97.2653 46.8135V49.7565C97.2653 49.9729 97.323 50.0306 97.626 50.0306H97.7775V50.2254C97.4889 50.2254 97.2076 50.211 96.9263 50.211C96.6666 50.211 96.3925 50.211 96.1328 50.2254V50.0306H96.2771C96.4935 50.0306 96.645 50.0234 96.645 49.7926V47.7007C96.645 47.3833 96.5584 47.3184 96.2482 47.1525V47.0299C96.7748 46.8712 96.9696 46.799 97.0561 46.763C97.1355 46.7269 97.1571 46.7197 97.2076 46.7197H97.2148ZM97.3374 45.1472C97.3374 45.3564 97.1643 45.5295 96.9623 45.5295C96.7676 45.5295 96.5872 45.3492 96.5872 45.1472C96.5872 44.9524 96.7748 44.7793 96.9623 44.7793C97.1715 44.7793 97.3374 44.9524 97.3374 45.1472Z" fill="#525459"/>
<path d="M101.263 47.2536C101.263 47.434 101.155 47.5927 100.967 47.5927C100.635 47.5927 100.664 46.9723 99.9355 46.9723C99.2863 46.9723 98.9256 47.6864 98.9256 48.2924C98.9256 49.1363 99.4811 49.7855 100.275 49.7855C100.664 49.7855 100.924 49.6485 101.212 49.4248L101.342 49.5547C100.967 49.9947 100.448 50.3554 99.8417 50.3554C99.0266 50.3554 98.3125 49.5619 98.3125 48.7612C98.3125 47.6504 99.106 46.7271 100.224 46.7271C100.751 46.7271 101.263 46.9002 101.263 47.2536Z" fill="#525459"/>
<path d="M104.911 47.9388C104.911 47.9749 104.911 48.0253 104.903 48.0614L104.831 48.1047H102.667C102.653 48.2057 102.653 48.3139 102.667 48.5447C102.711 49.2661 103.165 49.8864 103.8 49.8864C104.233 49.8864 104.564 49.6484 104.838 49.367L104.947 49.4752C104.514 50.0595 104.052 50.3481 103.518 50.3481C102.379 50.3481 102.047 49.3021 102.047 48.6601C102.047 47.1597 103.064 46.7197 103.605 46.7197C104.297 46.7197 104.911 47.167 104.911 47.9388ZM104.031 47.8594C104.182 47.8594 104.247 47.8089 104.247 47.6575C104.247 47.2896 104.023 46.9578 103.569 46.9578C103.114 46.9578 102.783 47.2968 102.689 47.8594H104.031Z" fill="#525459"/>
<path d="M107.476 46.8354C107.707 46.8427 107.945 46.8499 108.183 46.8499C108.536 46.8499 108.731 46.8354 109.005 46.8354V47.0302C108.717 47.0302 108.601 47.0663 108.601 47.1745C108.601 47.2322 108.63 47.326 108.659 47.4053L109.467 49.4755L110.109 47.8237C110.145 47.7299 110.167 47.665 110.167 47.5279C110.167 47.1673 109.929 47.0518 109.611 47.0302V46.8354C109.856 46.8427 110.167 46.8499 110.361 46.8499C110.736 46.8499 110.924 46.8354 111.212 46.8354V47.0302C111.011 47.0446 110.78 47.0302 110.78 47.2178C110.78 47.3043 110.873 47.5712 110.96 47.7876L111.595 49.4828H111.609C112.028 48.4224 112.266 47.8309 112.309 47.665C112.352 47.5063 112.388 47.3909 112.388 47.2683C112.388 47.0807 112.215 47.0446 111.927 47.0374V46.8427C112.143 46.8499 112.367 46.8571 112.583 46.8571C112.9 46.8571 113.03 46.8427 113.261 46.8427V47.0374C112.9 47.0302 112.778 47.3043 112.677 47.5496L111.573 50.3051L111.299 50.3484L110.354 47.9247L109.424 50.3051L109.157 50.3484L108.046 47.5856C107.837 47.0807 107.786 47.023 107.469 47.0302V46.8354H107.476Z" fill="#525459"/>
<path d="M114.949 46.7197C114.985 46.7197 115 46.7774 115 46.8135V49.7565C115 49.9729 115.057 50.0306 115.36 50.0306H115.512V50.2254C115.223 50.2254 114.942 50.211 114.661 50.211C114.401 50.211 114.127 50.211 113.867 50.2254V50.0306H114.011C114.228 50.0306 114.379 50.0234 114.379 49.7926V47.7007C114.379 47.3833 114.293 47.3184 113.983 47.1525V47.0299C114.509 46.8712 114.704 46.799 114.791 46.763C114.87 46.7269 114.891 46.7197 114.942 46.7197H114.949ZM115.072 45.1472C115.072 45.3564 114.899 45.5295 114.697 45.5295C114.502 45.5295 114.322 45.3492 114.322 45.1472C114.322 44.9524 114.509 44.7793 114.697 44.7793C114.906 44.7793 115.072 44.9524 115.072 45.1472Z" fill="#525459"/>
<path d="M117.165 46.0498V46.8361H118.312V47.2544H117.165V49.3175C117.165 49.707 117.374 49.9378 117.648 49.9378C117.857 49.9378 118.009 49.8657 118.189 49.7142L118.305 49.8296C118.031 50.1181 117.692 50.3562 117.28 50.3562C116.754 50.3562 116.552 50.0532 116.552 49.6493V47.2616H116.047V47.139C116.566 46.7639 116.768 46.5547 117.078 46.057H117.172L117.165 46.0498Z" fill="#525459"/>
<path d="M120.032 44.4478V47.398C120.451 46.9364 120.84 46.72 121.222 46.72C121.915 46.72 122.254 47.2394 122.254 47.8886V49.7568C122.254 49.9804 122.333 50.0309 122.6 50.0309H122.78V50.2257C122.492 50.2257 122.203 50.2113 121.915 50.2113C121.626 50.2113 121.381 50.2113 121.114 50.2257V50.0309H121.258C121.605 50.0309 121.634 49.9299 121.634 49.2735V48.2492C121.634 47.6072 121.489 47.1744 120.876 47.1744C120.609 47.1744 120.335 47.3187 120.032 47.6072V49.7785C120.032 49.966 120.111 50.0309 120.364 50.0309H120.559V50.2257C120.292 50.2257 120.003 50.2113 119.722 50.2113C119.455 50.2113 119.181 50.2113 118.914 50.2257V50.0309H119.08C119.304 50.0309 119.419 50.0021 119.419 49.7785V45.5081C119.419 45.0609 119.354 44.9744 119.008 44.895V44.7724C119.441 44.6281 119.679 44.5127 119.801 44.4406C119.902 44.3829 119.946 44.354 119.974 44.354C120.018 44.354 120.032 44.4117 120.032 44.4478Z" fill="#525459"/>
<path d="M126.727 44.4478V47.2754C127.103 46.9508 127.506 46.72 127.874 46.72C128.733 46.72 129.303 47.4702 129.303 48.3358C129.303 49.3601 128.545 50.3483 127.463 50.3483C127.124 50.3483 126.836 50.2906 126.396 50.0814L126.165 50.2618L126.006 50.1752C126.085 49.6486 126.114 49.2086 126.114 48.8696V45.4937C126.114 45.0393 126.035 44.9744 125.703 44.895V44.7724C126.403 44.5416 126.612 44.354 126.663 44.354C126.699 44.354 126.72 44.3901 126.72 44.4478H126.727ZM126.727 49.3457C126.727 49.728 127.059 50.1536 127.521 50.1536C128.322 50.1536 128.689 49.3817 128.689 48.6604C128.689 47.8741 128.098 47.1384 127.449 47.1384C127.175 47.1384 126.908 47.3403 126.727 47.499V49.3457Z" fill="#525459"/>
<path d="M131.041 46.7201C131.098 46.7201 131.113 46.7562 131.113 46.8139V47.5136H131.127C131.459 46.987 131.747 46.7201 132.115 46.7201C132.31 46.7201 132.555 46.8499 132.555 47.1313C132.555 47.3404 132.411 47.5208 132.195 47.5208C131.957 47.5208 131.949 47.3332 131.697 47.3332C131.509 47.3332 131.127 47.5496 131.127 47.9608V49.7858C131.127 50.0383 131.307 50.031 131.502 50.031H131.928V50.2258C131.56 50.2186 131.178 50.2114 130.802 50.2114C130.521 50.2114 130.225 50.2114 129.93 50.2258V50.031H130.168C130.377 50.031 130.507 50.0094 130.507 49.7858V47.6146C130.507 47.3909 130.262 47.3405 130.103 47.2683V47.1529C130.687 46.9077 130.968 46.7129 131.041 46.7129V46.7201Z" fill="#525459"/>
<path d="M135.157 46.7197C135.546 46.7197 136.094 46.965 136.094 47.3689V49.5041C136.094 49.7782 136.188 49.9369 136.369 49.9369C136.47 49.9369 136.585 49.8936 136.657 49.8071L136.729 49.9369C136.52 50.1244 136.275 50.3481 135.965 50.3481C135.654 50.3481 135.503 50.0595 135.488 49.7854C135.142 50.1028 134.796 50.3481 134.298 50.3481C133.801 50.3481 133.469 50.0018 133.469 49.5979C133.469 48.9775 133.858 48.8693 135.481 48.3067V47.8017C135.481 47.4122 135.265 47.1381 134.731 47.1381C134.363 47.1381 134.147 47.3761 134.147 47.6863C134.147 47.9027 133.88 48.0037 133.714 48.0037C133.599 48.0037 133.577 47.9027 133.577 47.845C133.577 47.4194 133.974 47.2319 134.493 46.9578C134.76 46.8207 134.868 46.7269 135.157 46.7269V46.7197ZM134.082 49.4392C134.082 49.7421 134.327 49.9946 134.63 49.9946C134.991 49.9946 135.229 49.7638 135.481 49.5474V48.5303C135.445 48.5447 135.258 48.6096 135.034 48.6746C134.5 48.8405 134.082 49.0569 134.082 49.4392Z" fill="#525459"/>
<path d="M138.454 46.792V47.3041C138.894 46.9867 139.269 46.7271 139.788 46.7271C140.402 46.7271 140.676 47.1599 140.676 47.8091V49.8072C140.676 49.9514 140.748 50.0452 140.986 50.0452H141.202V50.24C140.907 50.24 140.618 50.2255 140.315 50.2255C140.063 50.2255 139.81 50.2255 139.55 50.24V50.0452H139.752C139.933 50.0452 140.063 50.0236 140.063 49.7927V47.8018C140.063 47.4123 139.839 47.1454 139.363 47.1454C139.118 47.1454 138.757 47.3258 138.461 47.5133V49.7855C138.461 49.9947 138.562 50.0452 138.764 50.0452H138.988V50.24C138.699 50.24 138.411 50.2255 138.122 50.2255C137.863 50.2255 137.596 50.2255 137.336 50.24V50.0452H137.538C137.747 50.0452 137.848 50.0019 137.848 49.7999V47.7369C137.848 47.47 137.74 47.3763 137.401 47.2464V47.1021L137.884 46.9362C138.043 46.8785 138.23 46.8064 138.418 46.7271C138.447 46.7271 138.461 46.7559 138.461 46.7992L138.454 46.792Z" fill="#525459"/>
<path d="M145.035 44.4474V49.5833C145.035 49.8502 145.093 49.8935 145.36 49.8935H145.547V50.045C145.15 50.1315 144.581 50.3551 144.509 50.3551C144.444 50.3551 144.422 50.2758 144.422 50.1676V49.7925H144.408C144.119 50.0955 143.672 50.3551 143.225 50.3551C142.352 50.3551 141.789 49.6122 141.789 48.6816C141.789 47.6285 142.647 46.7268 143.693 46.7268C143.946 46.7268 144.198 46.7701 144.422 46.8639V45.5006C144.422 45.0605 144.35 44.9812 144.011 44.9018V44.7792C144.415 44.6494 144.667 44.5267 144.804 44.4474C144.905 44.3897 144.941 44.3608 144.977 44.3608C145.021 44.3608 145.035 44.4185 145.035 44.4546V44.4474ZM143.672 49.8863C143.953 49.8863 144.422 49.6915 144.422 49.4391V47.6574C144.422 47.2318 144.112 46.9649 143.592 46.9649C143.044 46.9649 142.453 47.3832 142.453 48.4075C142.453 49.2443 142.965 49.8863 143.672 49.8863Z" fill="#525459"/>
<path d="M147.34 46.7197C147.376 46.7197 147.39 46.7774 147.39 46.8135V49.7565C147.39 49.9729 147.448 50.0306 147.751 50.0306H147.902V50.2254C147.614 50.2254 147.333 50.211 147.051 50.211C146.792 50.211 146.517 50.211 146.258 50.2254V50.0306H146.402C146.618 50.0306 146.77 50.0234 146.77 49.7926V47.7007C146.77 47.3833 146.683 47.3184 146.373 47.1525V47.0299C146.9 46.8712 147.095 46.799 147.181 46.763C147.26 46.7269 147.282 46.7197 147.333 46.7197H147.34ZM147.462 45.1472C147.462 45.3564 147.289 45.5295 147.087 45.5295C146.893 45.5295 146.712 45.3492 146.712 45.1472C146.712 44.9524 146.9 44.7793 147.087 44.7793C147.297 44.7793 147.462 44.9524 147.462 45.1472Z" fill="#525459"/>
<path d="M149.735 46.792V47.3041C150.175 46.9867 150.55 46.7271 151.07 46.7271C151.683 46.7271 151.957 47.1599 151.957 47.8091V49.8072C151.957 49.9514 152.029 50.0452 152.267 50.0452H152.484V50.24C152.188 50.24 151.899 50.2255 151.596 50.2255C151.344 50.2255 151.091 50.2255 150.832 50.24V50.0452H151.034C151.214 50.0452 151.344 50.0236 151.344 49.7927V47.8018C151.344 47.4123 151.12 47.1454 150.644 47.1454C150.399 47.1454 150.038 47.3258 149.742 47.5133V49.7855C149.742 49.9947 149.843 50.0452 150.045 50.0452H150.269V50.24C149.981 50.24 149.692 50.2255 149.403 50.2255C149.144 50.2255 148.877 50.2255 148.617 50.24V50.0452H148.819C149.028 50.0452 149.129 50.0019 149.129 49.7999V47.7369C149.129 47.47 149.021 47.3763 148.682 47.2464V47.1021L149.165 46.9362C149.324 46.8785 149.512 46.8064 149.699 46.7271C149.728 46.7271 149.742 46.7559 149.742 46.7992L149.735 46.792Z" fill="#525459"/>
<path d="M156.088 46.9581C156.138 46.9581 156.369 46.9581 156.578 46.922V47.2899L155.814 47.2611C155.944 47.4198 156.016 47.6362 156.016 47.8453C156.016 48.4729 155.468 49.0283 154.616 49.0283C154.487 49.0283 154.313 49.0139 154.169 48.9851C154.025 49.0933 153.938 49.1942 153.938 49.3818C153.938 49.627 154.133 49.7352 154.479 49.7352H155.569C156.182 49.7497 156.6 49.93 156.6 50.5143C156.6 50.8173 156.218 52.0002 154.559 52.0002C153.693 52.0002 153.102 51.6251 153.102 51.1419C153.102 50.7018 153.426 50.3844 154.003 50.2546V50.2402C153.635 50.132 153.325 49.9012 153.325 49.5621C153.325 49.5044 153.325 49.3962 153.361 49.3241C153.628 49.1726 153.909 49.0211 154.003 48.9418C153.57 48.7182 153.282 48.4296 153.282 47.9175C153.282 47.2034 153.83 46.7417 154.725 46.7417C155.266 46.7417 155.633 46.9797 156.102 46.9797L156.088 46.9581ZM153.657 50.9615C153.657 51.4232 154.039 51.7478 154.674 51.7478C155.251 51.7478 156.023 51.4953 156.023 50.8605C156.023 50.3628 155.504 50.2402 154.89 50.2402C154.234 50.2402 153.657 50.3267 153.657 50.9615ZM154.652 48.8264C155.114 48.8264 155.403 48.4729 155.403 47.9247C155.403 47.4702 155.165 46.922 154.602 46.922C154.162 46.922 153.931 47.3548 153.931 47.7949C153.931 48.3142 154.162 48.8264 154.652 48.8264Z" fill="#525459"/>
<path d="M162.707 44.4474V49.5833C162.707 49.8502 162.765 49.8935 163.032 49.8935H163.219V50.045C162.822 50.1315 162.253 50.3551 162.18 50.3551C162.115 50.3551 162.094 50.2758 162.094 50.1676V49.7925H162.079C161.791 50.0955 161.344 50.3551 160.896 50.3551C160.024 50.3551 159.461 49.6122 159.461 48.6816C159.461 47.6285 160.319 46.7268 161.365 46.7268C161.618 46.7268 161.87 46.7701 162.094 46.8639V45.5006C162.094 45.0605 162.022 44.9812 161.683 44.9018V44.7792C162.087 44.6494 162.339 44.5267 162.476 44.4474C162.577 44.3897 162.613 44.3608 162.649 44.3608C162.693 44.3608 162.707 44.4185 162.707 44.4546V44.4474ZM161.344 49.8863C161.625 49.8863 162.094 49.6915 162.094 49.4391V47.6574C162.094 47.2318 161.784 46.9649 161.264 46.9649C160.716 46.9649 160.125 47.3832 160.125 48.4075C160.125 49.2443 160.637 49.8863 161.344 49.8863Z" fill="#525459"/>
<path d="M166.684 47.9388C166.684 47.9749 166.684 48.0253 166.677 48.0614L166.605 48.1047H164.441C164.426 48.2057 164.426 48.3139 164.441 48.5447C164.484 49.2661 164.938 49.8864 165.573 49.8864C166.006 49.8864 166.338 49.6484 166.612 49.367L166.72 49.4752C166.287 50.0595 165.826 50.3481 165.292 50.3481C164.152 50.3481 163.82 49.3021 163.82 48.6601C163.82 47.1597 164.837 46.7197 165.378 46.7197C166.071 46.7197 166.684 47.167 166.684 47.9388ZM165.804 47.8594C165.955 47.8594 166.02 47.8089 166.02 47.6575C166.02 47.2896 165.797 46.9578 165.342 46.9578C164.888 46.9578 164.556 47.2968 164.462 47.8594H165.804Z" fill="#525459"/>
<path d="M168.904 46.7197C169.149 46.7197 169.481 46.7847 169.784 46.9433L169.841 47.7296H169.661C169.574 47.2391 169.315 46.965 168.817 46.965C168.507 46.965 168.211 47.1453 168.211 47.4699C168.211 48.3716 170.007 48.0903 170.007 49.3021C170.007 49.8936 169.502 50.3481 168.694 50.3481C168.377 50.3481 167.995 50.2399 167.735 50.0884L167.648 49.2011L167.785 49.1651C167.908 49.7782 168.269 50.1028 168.759 50.1028C169.17 50.1028 169.387 49.872 169.387 49.5546C169.387 48.6457 167.706 48.9414 167.706 47.7007C167.706 47.2174 168.11 46.7197 168.904 46.7197Z" fill="#525459"/>
<path d="M171.957 46.7197C171.993 46.7197 172.007 46.7774 172.007 46.8135V49.7565C172.007 49.9729 172.065 50.0306 172.368 50.0306H172.52V50.2254C172.231 50.2254 171.95 50.211 171.668 50.211C171.409 50.211 171.135 50.211 170.875 50.2254V50.0306H171.019C171.236 50.0306 171.387 50.0234 171.387 49.7926V47.7007C171.387 47.3833 171.301 47.3184 170.99 47.1525V47.0299C171.517 46.8712 171.712 46.799 171.798 46.763C171.878 46.7269 171.899 46.7197 171.95 46.7197H171.957ZM172.08 45.1472C172.08 45.3564 171.907 45.5295 171.705 45.5295C171.51 45.5295 171.329 45.3492 171.329 45.1472C171.329 44.9524 171.517 44.7793 171.705 44.7793C171.914 44.7793 172.08 44.9524 172.08 45.1472Z" fill="#525459"/>
<path d="M176.197 46.9581C176.248 46.9581 176.479 46.9581 176.688 46.922V47.2899L175.923 47.2611C176.053 47.4198 176.125 47.6362 176.125 47.8453C176.125 48.4729 175.577 49.0283 174.726 49.0283C174.596 49.0283 174.423 49.0139 174.279 48.9851C174.134 49.0933 174.048 49.1942 174.048 49.3818C174.048 49.627 174.242 49.7352 174.589 49.7352H175.678C176.291 49.7497 176.709 49.93 176.709 50.5143C176.709 50.8173 176.327 52.0002 174.668 52.0002C173.802 52.0002 173.211 51.6251 173.211 51.1419C173.211 50.7018 173.536 50.3844 174.113 50.2546V50.2402C173.745 50.132 173.435 49.9012 173.435 49.5621C173.435 49.5044 173.435 49.3962 173.471 49.3241C173.738 49.1726 174.019 49.0211 174.113 48.9418C173.68 48.7182 173.391 48.4296 173.391 47.9175C173.391 47.2034 173.939 46.7417 174.834 46.7417C175.375 46.7417 175.743 46.9797 176.212 46.9797L176.197 46.9581ZM173.766 50.9615C173.766 51.4232 174.149 51.7478 174.783 51.7478C175.361 51.7478 176.132 51.4953 176.132 50.8605C176.132 50.3628 175.613 50.2402 175 50.2402C174.343 50.2402 173.766 50.3267 173.766 50.9615ZM174.762 48.8264C175.223 48.8264 175.512 48.4729 175.512 47.9247C175.512 47.4702 175.274 46.922 174.711 46.922C174.271 46.922 174.04 47.3548 174.04 47.7949C174.04 48.3142 174.271 48.8264 174.762 48.8264Z" fill="#525459"/>
<path d="M178.642 46.792V47.3041C179.082 46.9867 179.457 46.7271 179.976 46.7271C180.589 46.7271 180.863 47.1599 180.863 47.8091V49.8072C180.863 49.9514 180.935 50.0452 181.173 50.0452H181.39V50.24C181.094 50.24 180.806 50.2255 180.503 50.2255C180.25 50.2255 179.998 50.2255 179.738 50.24V50.0452H179.94C180.12 50.0452 180.25 50.0236 180.25 49.7927V47.8018C180.25 47.4123 180.026 47.1454 179.55 47.1454C179.305 47.1454 178.944 47.3258 178.649 47.5133V49.7855C178.649 49.9947 178.75 50.0452 178.952 50.0452H179.175V50.24C178.887 50.24 178.598 50.2255 178.31 50.2255C178.05 50.2255 177.783 50.2255 177.523 50.24V50.0452H177.725C177.935 50.0452 178.036 50.0019 178.036 49.7999V47.7369C178.036 47.47 177.927 47.3763 177.588 47.2464V47.1021L178.072 46.9362C178.23 46.8785 178.418 46.8064 178.605 46.7271C178.634 46.7271 178.649 46.7559 178.649 46.7992L178.642 46.792Z" fill="#525459"/>
</svg>
