<svg width="14" height="14" viewBox="0 0 14 14" fill="none" xmlns="http://www.w3.org/2000/svg">
<path d="M8.64199 12.1429C7.81564 12.1429 7.06549 11.694 6.6797 10.9688C6.47013 10.5767 6.06291 10.3381 5.62711 10.3381C5.56281 10.3381 5.49851 10.3428 5.43421 10.3546C5.23417 10.3877 5.02699 10.4042 4.82219 10.4042C2.71463 10.4042 1 8.70338 1 6.61277C1 4.52215 2.71463 2.82368 4.82219 2.82368C5.45803 2.82368 6.08911 2.98195 6.64398 3.28432C6.8202 3.38117 7.01786 3.42842 7.21314 3.42842C7.36079 3.42842 7.50843 3.40244 7.64894 3.34574C7.97757 3.21818 8.23001 2.9536 8.34193 2.62052C8.66819 1.65199 9.58027 1 10.609 1C11.9284 1 13 2.06302 13 3.37173C13 4.68043 11.9284 5.74345 10.609 5.74345C10.4995 5.74345 10.39 5.73636 10.2828 5.72219C10.228 5.7151 10.1732 5.71038 10.1209 5.71038C9.60409 5.71038 9.13495 6.04582 8.98254 6.54899C8.81346 7.10412 9.07779 7.70178 9.60409 7.95454C10.3685 8.32069 10.8639 9.10025 10.8639 9.93885C10.8639 11.1531 9.86843 12.1429 8.64199 12.1429Z" fill="#525459"/>
</svg>
